<svg width="163" height="52" viewBox="0 0 163 52" fill="none" xmlns="http://www.w3.org/2000/svg">
<path d="M85.8614 13.2596C85.8614 15.0792 84.3956 16.5449 82.5761 16.5449C80.7565 16.5449 79.2908 15.0792 79.2908 13.2596C79.2908 11.4401 80.706 9.97431 82.5761 9.97431C84.4462 10.0249 85.8614 11.4906 85.8614 13.2596ZM72.3158 19.8808C72.3158 20.184 72.3158 20.6895 72.3158 20.6895C72.3158 20.6895 70.749 18.6677 67.4131 18.6677C61.9039 18.6677 57.6078 22.8628 57.6078 28.6753C57.6078 34.4372 61.8534 38.6828 67.4131 38.6828C70.7995 38.6828 72.3158 36.6105 72.3158 36.6105V37.4698C72.3158 37.8741 72.6191 38.1774 73.0234 38.1774H77.1174V19.1732C77.1174 19.1732 73.3772 19.1732 73.0234 19.1732C72.6191 19.1732 72.3158 19.527 72.3158 19.8808ZM72.3158 32.0617C71.5577 33.1736 70.0414 34.1339 68.2218 34.1339C64.9871 34.1339 62.5104 32.1122 62.5104 28.6753C62.5104 25.2383 64.9871 23.2166 68.2218 23.2166C69.9908 23.2166 71.6082 24.2275 72.3158 25.2889V32.0617ZM80.15 19.1732H85.0021V38.1774H80.15V19.1732ZM152.629 18.6677C149.293 18.6677 147.726 20.6895 147.726 20.6895V10.0249H142.874V38.1774C142.874 38.1774 146.614 38.1774 146.968 38.1774C147.372 38.1774 147.676 37.8236 147.676 37.4698V36.6105C147.676 36.6105 149.242 38.6828 152.578 38.6828C158.087 38.6828 162.384 34.4372 162.384 28.6753C162.384 22.9133 158.087 18.6677 152.629 18.6677ZM151.82 34.0834C149.95 34.0834 148.484 33.1231 147.726 32.0111V25.2383C148.484 24.2275 150.102 23.1661 151.82 23.1661C155.055 23.1661 157.532 25.1878 157.532 28.6247C157.532 32.0617 155.055 34.0834 151.82 34.0834ZM140.347 26.9063V38.2279H135.495V27.4622C135.495 24.3286 134.484 23.065 131.755 23.065C130.289 23.065 128.772 23.8231 127.812 24.9351V38.1774H122.96V19.1732H126.801C127.206 19.1732 127.509 19.527 127.509 19.8808V20.6895C128.924 19.2237 130.794 18.6677 132.664 18.6677C134.787 18.6677 136.556 19.2742 137.971 20.4873C139.69 21.9025 140.347 23.722 140.347 26.9063ZM111.183 18.6677C107.848 18.6677 106.281 20.6895 106.281 20.6895V10.0249H101.429V38.1774C101.429 38.1774 105.169 38.1774 105.523 38.1774C105.927 38.1774 106.23 37.8236 106.23 37.4698V36.6105C106.23 36.6105 107.797 38.6828 111.133 38.6828C116.642 38.6828 120.938 34.4372 120.938 28.6753C120.989 22.9133 116.693 18.6677 111.183 18.6677ZM110.375 34.0834C108.505 34.0834 107.039 33.1231 106.281 32.0111V25.2383C107.039 24.2275 108.656 23.1661 110.375 23.1661C113.61 23.1661 116.086 25.1878 116.086 28.6247C116.086 32.0617 113.61 34.0834 110.375 34.0834ZM97.2336 18.6677C98.6993 18.6677 99.4575 18.9204 99.4575 18.9204V23.4188C99.4575 23.4188 95.414 22.0541 92.8869 24.9351V38.2279H88.0347V19.1732C88.0347 19.1732 91.7749 19.1732 92.1287 19.1732C92.5331 19.1732 92.8363 19.527 92.8363 19.8808V20.6895C93.7461 19.628 95.7173 18.6677 97.2336 18.6677ZM46.8421 36.4589C46.5894 35.8524 46.3366 35.1953 46.0839 34.6394C45.6796 33.7296 45.2752 32.8703 44.9214 32.0617L44.8709 32.0111C41.3834 24.4296 37.6432 16.7471 33.7009 9.16562L33.5492 8.86236C33.1449 8.10421 32.7405 7.29552 32.3362 6.48683C31.8308 5.57706 31.3253 4.61674 30.5167 3.70696C28.8993 1.68524 26.5743 0.573288 24.0977 0.573288C21.5705 0.573288 19.2961 1.68524 17.6282 3.60588C16.87 4.51565 16.314 5.47597 15.8086 6.38575C15.4043 7.19444 14.9999 8.00313 14.5956 8.76127L14.4439 9.06453C10.5521 16.646 6.76138 24.3286 3.27391 31.91L3.22337 32.0111C2.86956 32.8198 2.46522 33.679 2.06087 34.5888C1.80816 35.1448 1.55544 35.7513 1.30273 36.4084C0.645667 38.2785 0.443494 40.0475 0.69621 41.867C1.25218 45.6578 3.77934 48.842 7.26682 50.2572C8.58094 50.8132 9.9456 51.0659 11.3608 51.0659C11.7652 51.0659 12.2706 51.0153 12.6749 50.9648C14.3429 50.7626 16.0613 50.2066 17.7292 49.2463C19.8015 48.0838 21.7727 46.4159 23.9966 43.9898C26.2205 46.4159 28.2422 48.0838 30.2639 49.2463C31.9319 50.2066 33.6503 50.7626 35.3182 50.9648C35.7226 51.0153 36.228 51.0659 36.6324 51.0659C38.0476 51.0659 39.4628 50.8132 40.7264 50.2572C44.2644 48.842 46.741 45.6072 47.297 41.867C47.7013 40.098 47.4991 38.329 46.8421 36.4589ZM24.0471 39.0871C21.3178 35.6502 19.5488 32.4155 18.9423 29.6861C18.6896 28.5236 18.639 27.5128 18.7906 26.603C18.8917 25.7943 19.195 25.0867 19.5993 24.4802C20.5597 23.1155 22.177 22.2563 24.0471 22.2563C25.9172 22.2563 27.5851 23.065 28.4949 24.4802C28.8993 25.0867 29.2025 25.7943 29.3036 26.603C29.4552 27.5128 29.4047 28.5742 29.152 29.6861C28.5455 32.3649 26.7765 35.5997 24.0471 39.0871ZM44.2138 41.4627C43.86 44.0909 42.091 46.3654 39.6144 47.3762C38.4014 47.8816 37.0873 48.0333 35.7731 47.8816C34.5096 47.73 33.246 47.3257 31.9319 46.5675C30.1123 45.5567 28.2928 43.9898 26.1699 41.6648C29.5058 37.5709 31.5275 33.8307 32.2857 30.4948C32.6395 28.928 32.69 27.5128 32.5384 26.1987C32.3362 24.9351 31.8813 23.7726 31.1737 22.7617C29.6069 20.4873 26.9786 19.1732 24.0471 19.1732C21.1156 19.1732 18.4874 20.5378 16.9206 22.7617C16.2129 23.7726 15.7581 24.9351 15.5559 26.1987C15.3537 27.5128 15.4043 28.9785 15.8086 30.4948C16.5667 33.8307 18.639 37.6214 21.9243 41.7154C19.8521 44.0404 17.982 45.6072 16.1624 46.6181C14.8483 47.3762 13.5847 47.7806 12.3211 47.9322C10.9565 48.0838 9.64234 47.8816 8.47985 47.4268C6.00324 46.4159 4.23423 44.1415 3.88043 41.5132C3.7288 40.2496 3.82988 38.9861 4.33531 37.5709C4.48694 37.0654 4.73966 36.56 4.99237 35.9535C5.34618 35.1448 5.75052 34.2856 6.15487 33.4263L6.20541 33.3252C9.69289 25.7943 13.4331 18.1118 17.3249 10.6314L17.4765 10.3281C17.8809 9.56996 18.2852 8.76127 18.6896 8.00313C19.0939 7.19444 19.5488 6.43629 20.1048 5.77923C21.1662 4.56619 22.5814 3.90913 24.1482 3.90913C25.7151 3.90913 27.1303 4.56619 28.1917 5.77923C28.7476 6.43629 29.2025 7.19444 29.6069 8.00313C30.0112 8.76127 30.4156 9.56996 30.8199 10.3281L30.9715 10.6314C34.8128 18.1623 38.553 25.8449 42.0405 33.3758V33.4263C42.4448 34.235 42.7986 35.1448 43.203 35.9535C43.4557 36.56 43.7084 37.0654 43.86 37.5709C44.2644 38.885 44.416 40.1486 44.2138 41.4627Z" fill="#878787"/>
</svg>
