<svg width="232" height="26" viewBox="0 0 232 26" fill="none" xmlns="http://www.w3.org/2000/svg">
<path d="M198.452 10.4769V25.6903H204.268V15.548H225.539V25.6903H231.355V10.4769H198.452ZM203.604 5.54469H226.038C229.195 5.05841 231.439 2.69651 232.103 0.473541H197.538C198.203 2.69651 200.529 4.98894 203.604 5.54469ZM180.754 25.6903C183.662 24.6483 185.241 22.8422 185.906 20.7581H159.733V0.543009H153.834V25.6903H180.754ZM110.212 5.47522H130.984C134.142 4.71107 136.717 2.69651 137.382 0.543009H104.479V15.4091H131.4V20.6192H110.295C106.971 21.3833 104.146 23.259 102.734 25.6903H137.216V10.4769H110.295L110.212 5.47522ZM59.0293 5.54469H81.4632C84.6206 5.05841 86.9471 2.69651 87.5287 0.473541H52.8807C53.5454 2.69651 55.8719 4.98894 59.0293 5.54469ZM59.0293 15.4786H81.4632C84.6206 14.9923 86.9471 12.6304 87.5287 10.4074H52.8807C53.5454 12.6304 55.8719 14.9228 59.0293 15.4786ZM59.0293 25.6903H81.4632C84.6206 25.2041 86.9471 22.8422 87.5287 20.6192H52.8807C53.5454 22.8422 55.8719 25.2041 59.0293 25.6903Z" fill="#878787"/>
<path d="M0.617798 0.543009C1.28251 2.76598 3.609 4.98894 6.68328 5.54469H16.1554L16.6539 5.68362V25.6209H22.5532V5.68362L23.0518 5.54469H32.5239C35.6813 4.85001 37.9247 2.76598 38.5894 0.543009V0.473541L0.617798 0.543009Z" fill="#878787"/>
</svg>
